<svg xmlns="http://www.w3.org/2000/svg" xmlns:xlink="http://www.w3.org/1999/xlink" width="500" zoomAndPan="magnify" viewBox="0 0 375 374.999991" height="500" preserveAspectRatio="xMidYMid meet" version="1.0"><defs><g/><clipPath id="35e857579f"><path d="M 76 142 L 319.515625 142 L 319.515625 254 L 76 254 Z M 76 142 " clip-rule="nonzero"/></clipPath><clipPath id="d825da46b1"><path d="M 254 12 L 363 12 L 363 111 L 254 111 Z M 254 12 " clip-rule="nonzero"/></clipPath><clipPath id="2681f05415"><path d="M 242.015625 29.046875 L 349.902344 -0.0898438 L 375.324219 94.035156 L 267.4375 123.175781 Z M 242.015625 29.046875 " clip-rule="nonzero"/></clipPath><clipPath id="21fd4dfa01"><path d="M 242.015625 29.046875 L 349.902344 -0.0898438 L 375.324219 94.035156 L 267.4375 123.175781 Z M 242.015625 29.046875 " clip-rule="nonzero"/></clipPath><clipPath id="abbf0acab1"><path d="M 242.015625 29.046875 L 349.902344 -0.0898438 L 375.324219 94.035156 L 267.4375 123.175781 Z M 242.015625 29.046875 " clip-rule="nonzero"/></clipPath></defs><path fill="#004a87" d="M 53.925781 221.15625 C 53.925781 225.128906 50.703125 228.347656 46.726562 228.347656 C 42.75 228.347656 39.527344 225.128906 39.527344 221.15625 C 39.527344 217.183594 42.75 213.96875 46.726562 213.96875 C 50.703125 213.96875 53.925781 217.183594 53.925781 221.15625 " fill-opacity="1" fill-rule="nonzero"/><path fill="#004a87" d="M 56.972656 113.652344 C 49.175781 113.230469 41.167969 115.304688 34.402344 119.492188 C 27.257812 123.914062 22.003906 130.441406 19.609375 137.875 C 14.261719 154.46875 23.1875 167.515625 33.628906 179.140625 C 35.664062 181.40625 37.816406 183.65625 39.890625 185.824219 C 47.527344 193.8125 56.597656 200.789062 60.769531 210.070312 C 68.273438 226.777344 47.699219 225.46875 47.699219 225.46875 L 46.726562 228.347656 C 46.9375 228.457031 47.152344 228.558594 47.363281 228.65625 C 58.710938 233.917969 71.296875 223.953125 69.019531 211.664062 C 68.765625 210.300781 68.398438 208.921875 67.914062 207.542969 C 63.8125 195.8125 55.476562 187.09375 47.410156 178.660156 C 45.296875 176.449219 43.296875 174.355469 41.367188 172.207031 C 31.691406 161.4375 25.972656 152.019531 29.503906 141.054688 C 32.84375 130.691406 44.410156 123.367188 56.40625 124.019531 C 69.917969 124.753906 83.695312 134.796875 97.351562 153.871094 L 105.804688 147.832031 C 90.003906 125.761719 74.027344 114.582031 56.972656 113.652344 " fill-opacity="1" fill-rule="nonzero"/><path fill="#004a87" d="M 157.503906 293.5 C 153.433594 294.25 149.753906 294.566406 146.445312 294.566406 C 137.230469 294.566406 130.863281 292.113281 126.8125 289.675781 C 120.71875 286.007812 118.363281 281.597656 118.265625 281.414062 C 117.828125 280.578125 118.152344 279.542969 118.992188 279.105469 C 119.824219 278.675781 120.855469 278.996094 121.292969 279.824219 C 121.335938 279.902344 123.433594 283.714844 128.769531 286.859375 C 135.917969 291.082031 145.636719 292.210938 156.878906 290.140625 C 157.8125 289.976562 158.703125 290.578125 158.871094 291.511719 C 159.046875 292.4375 158.429688 293.328125 157.503906 293.5 Z M 185.5625 260.523438 C 183.652344 259.039062 182.085938 257.238281 180.792969 255.234375 C 176.433594 256.332031 172.179688 257.023438 168.097656 257.210938 C 166.222656 257.296875 164.332031 257.34375 162.488281 257.34375 C 154.773438 257.34375 147.339844 256.601562 140.210938 255.125 C 138.902344 257.167969 137.3125 259.011719 135.363281 260.523438 C 128.773438 265.632812 108.570312 276.394531 111.765625 284.089844 C 121.082031 306.554688 199.847656 306.554688 209.164062 284.089844 C 212.355469 276.394531 192.148438 265.632812 185.5625 260.523438 " fill-opacity="1" fill-rule="nonzero"/><path fill="#004a87" d="M 143.902344 118.589844 C 146.632812 121.316406 148.652344 124.621094 149.855469 128.210938 C 151.828125 128.074219 153.816406 128.003906 155.816406 128.003906 C 160.425781 128.003906 165.007812 128.378906 169.503906 129.011719 C 170.664062 125.113281 172.785156 121.519531 175.71875 118.589844 L 179.234375 115.082031 C 180.230469 114.085938 180.230469 112.46875 179.234375 111.46875 L 161.617188 93.882812 C 160.621094 92.882812 159 92.882812 158.003906 93.882812 L 140.390625 111.46875 C 139.390625 112.46875 139.390625 114.085938 140.390625 115.082031 L 143.902344 118.589844 " fill-opacity="1" fill-rule="nonzero"/><path fill="#004a87" d="M 169.109375 160.253906 C 187.113281 160.253906 206.667969 157.207031 227.296875 151.1875 C 227.296875 151.1875 223.5 149.8125 222.574219 149.464844 C 220.746094 148.785156 218.933594 148.085938 217.113281 147.382812 C 213.707031 146.050781 210.316406 144.6875 206.914062 143.339844 C 186.695312 135.324219 165.097656 128.917969 143.039062 132.464844 C 130.625 134.460938 119.242188 138.550781 108.570312 145.164062 C 118.273438 151.164062 138.089844 160.257812 169.109375 160.253906 " fill-opacity="1" fill-rule="nonzero"/><g clip-path="url(#35e857579f)"><path fill="#004a87" d="M 98.703125 163.128906 C 98.585938 163.230469 92.332031 168.839844 88.84375 177.992188 C 84.195312 190.175781 86.398438 202.644531 95.394531 215.058594 C 95.996094 215.890625 95.808594 217.050781 94.976562 217.65625 C 94.644531 217.894531 94.265625 218.007812 93.882812 218.007812 C 93.308594 218.007812 92.738281 217.742188 92.375 217.238281 C 80.144531 200.371094 81.839844 185.78125 85.417969 176.515625 C 89.277344 166.519531 95.960938 160.578125 96.242188 160.335938 C 97.015625 159.65625 98.191406 159.734375 98.871094 160.503906 C 99.550781 161.277344 99.472656 162.449219 98.703125 163.128906 Z M 301.367188 142.160156 C 282.929688 150.179688 258.941406 161.851562 232.890625 153.117188 C 161.511719 175.28125 120.972656 157.378906 105.347656 147.226562 C 72.636719 168.875 72.140625 191.902344 81.285156 209.839844 C 88.394531 223.789062 116.132812 256.167969 167.933594 253.753906 C 218.464844 251.402344 304.835938 166.265625 319.5 142.160156 L 301.367188 142.160156 " fill-opacity="1" fill-rule="nonzero"/></g><g clip-path="url(#d825da46b1)"><g clip-path="url(#2681f05415)"><g clip-path="url(#21fd4dfa01)"><g clip-path="url(#abbf0acab1)"><path fill="#004a87" d="M 259.78125 74.75 L 290.796875 92.503906 L 288.949219 95.710938 L 254.730469 76.117188 L 274.441406 41.953125 L 277.65625 43.792969 Z M 304.398438 12.230469 L 307.996094 12.164062 L 312.941406 110.851562 L 309.34375 110.917969 Z M 328.382812 27.386719 L 362.613281 46.976562 L 342.902344 81.140625 L 339.6875 79.300781 L 357.550781 48.347656 L 326.535156 30.59375 Z M 328.382812 27.386719 " fill-opacity="1" fill-rule="nonzero"/></g></g></g></g><g fill="#004a87" fill-opacity="1"><g transform="translate(2.929692, 361.499976)"><g><path d="M 48.09375 -14.3125 L 42.796875 -14.3125 C 41.144531 -11.285156 38.875 -8.808594 35.984375 -7.019531 C 33.09375 -5.160156 29.863281 -4.265625 26.421875 -4.265625 C 21.261719 -4.265625 16.855469 -6.125 13.210938 -9.976562 C 9.632812 -13.625 7.914062 -18.097656 7.914062 -23.324219 C 7.914062 -28.554688 9.632812 -33.027344 13.210938 -36.742188 C 14.863281 -38.460938 16.855469 -39.839844 19.128906 -40.871094 C 21.328125 -41.902344 23.53125 -42.453125 25.734375 -42.453125 C 27.867188 -42.453125 29.722656 -42.175781 31.375 -41.695312 C 36.398438 -40.183594 40.183594 -37.15625 42.726562 -32.542969 L 48.027344 -32.542969 C 46.238281 -36.949219 43.414062 -40.527344 39.492188 -43.277344 C 35.503906 -46.03125 31.167969 -47.40625 26.421875 -47.40625 C 19.882812 -47.40625 14.378906 -45 9.839844 -40.25 C 7.707031 -38.050781 6.054688 -35.433594 4.886719 -32.542969 C 3.648438 -29.65625 3.097656 -26.558594 3.097656 -23.324219 C 3.097656 -16.71875 5.296875 -11.144531 9.839844 -6.46875 C 14.378906 -1.652344 19.882812 0.6875 26.421875 0.6875 C 31.167969 0.6875 35.503906 -0.6875 39.5625 -3.441406 C 43.484375 -6.191406 46.304688 -9.769531 48.09375 -14.3125 Z M 48.09375 -14.3125 "/></g></g></g><g fill="#004a87" fill-opacity="1"><g transform="translate(53.085481, 361.499976)"><g><path d="M 29.929688 -15.273438 C 29.929688 -12.246094 28.828125 -9.703125 26.695312 -7.570312 C 24.496094 -5.367188 21.949219 -4.335938 18.921875 -4.335938 C 15.894531 -4.335938 13.28125 -5.367188 11.144531 -7.570312 C 8.945312 -9.703125 7.914062 -12.246094 7.914062 -15.273438 C 7.914062 -18.300781 8.945312 -20.847656 11.144531 -23.050781 C 13.28125 -25.183594 15.894531 -26.285156 18.921875 -26.285156 C 21.949219 -26.285156 24.496094 -25.183594 26.695312 -23.050781 C 28.828125 -20.847656 29.929688 -18.300781 29.929688 -15.273438 Z M 34.746094 -15.273438 C 34.746094 -19.609375 33.164062 -23.324219 30.066406 -26.421875 C 26.972656 -29.515625 23.257812 -31.101562 18.921875 -31.101562 C 14.519531 -31.101562 10.800781 -29.515625 7.707031 -26.421875 C 4.609375 -23.324219 3.097656 -19.609375 3.097656 -15.273438 C 3.097656 -10.871094 4.609375 -7.15625 7.707031 -4.128906 C 10.800781 -1.03125 14.585938 0.480469 18.921875 0.480469 C 23.1875 0.480469 26.972656 -1.03125 30.066406 -4.128906 C 33.164062 -7.15625 34.746094 -10.871094 34.746094 -15.273438 Z M 34.746094 -15.273438 "/></g></g></g><g fill="#004a87" fill-opacity="1"><g transform="translate(90.925917, 361.499976)"><g><path d="M 29.242188 -15.136719 C 29.242188 -12.179688 28.210938 -9.5625 26.144531 -7.429688 C 24.082031 -5.230469 21.535156 -4.128906 18.578125 -4.128906 C 15.550781 -4.128906 13.003906 -5.230469 10.941406 -7.429688 C 8.875 -9.5625 7.914062 -12.179688 7.914062 -15.136719 C 7.914062 -18.027344 8.875 -20.640625 10.941406 -22.84375 C 13.003906 -25.046875 15.550781 -26.144531 18.578125 -26.144531 C 21.535156 -26.144531 24.082031 -25.046875 26.144531 -22.84375 C 28.210938 -20.640625 29.242188 -18.027344 29.242188 -15.136719 Z M 34.058594 0 L 34.058594 -51.605469 L 29.242188 -51.605469 L 29.242188 -25.046875 C 28.96875 -25.457031 28.621094 -25.800781 28.347656 -26.144531 C 25.457031 -29.3125 21.949219 -30.960938 17.820312 -30.960938 C 13.625 -30.960938 10.113281 -29.3125 7.222656 -26.144531 C 4.472656 -22.980469 3.097656 -19.335938 3.097656 -15.136719 C 3.097656 -10.871094 4.472656 -7.222656 7.222656 -4.128906 C 10.113281 -0.894531 13.625 0.6875 17.820312 0.6875 C 21.949219 0.6875 25.457031 -0.894531 28.347656 -4.128906 C 28.621094 -4.402344 28.96875 -4.746094 29.242188 -5.160156 L 29.242188 0 Z M 34.058594 0 "/></g></g></g><g fill="#004a87" fill-opacity="1"><g transform="translate(130.142379, 361.499976)"><g><path d="M 34.746094 -15.824219 C 34.746094 -19.953125 33.09375 -23.53125 29.929688 -26.628906 C 26.832031 -29.585938 23.117188 -31.101562 18.921875 -31.101562 C 14.519531 -31.101562 10.800781 -29.515625 7.707031 -26.421875 C 4.609375 -23.324219 3.097656 -19.609375 3.097656 -15.273438 C 3.097656 -10.871094 4.609375 -7.15625 7.707031 -4.128906 C 9.152344 -2.683594 10.800781 -1.582031 12.730469 -0.757812 C 14.65625 0.0703125 16.925781 0.480469 19.609375 0.480469 C 22.292969 0.480469 24.90625 -0.34375 27.523438 -1.996094 C 30.136719 -3.648438 32.0625 -5.984375 33.371094 -8.875 L 27.867188 -8.875 C 26.765625 -7.429688 25.457031 -6.328125 23.875 -5.503906 C 22.292969 -4.679688 20.640625 -4.335938 18.921875 -4.335938 C 16.308594 -4.335938 13.96875 -5.160156 11.902344 -6.878906 C 9.839844 -8.53125 8.53125 -10.664062 8.117188 -13.28125 L 34.746094 -13.28125 Z M 29.65625 -17.40625 L 8.1875 -17.40625 C 8.464844 -18.644531 8.945312 -19.816406 9.632812 -20.917969 C 11.835938 -24.496094 14.929688 -26.285156 18.921875 -26.285156 C 21.46875 -26.285156 23.738281 -25.457031 25.734375 -23.804688 C 27.796875 -22.085938 29.035156 -19.953125 29.65625 -17.40625 Z M 29.65625 -17.40625 "/></g></g></g><g fill="#004a87" fill-opacity="1"><g transform="translate(167.636716, 361.499976)"><g><path d="M 27.523438 -37.84375 C 32.0625 -37.84375 36.742188 -35.984375 39.011719 -31.03125 L 50.367188 -31.03125 C 47.132812 -40.734375 37.84375 -47.476562 27.523438 -47.476562 C 14.3125 -47.476562 3.441406 -36.605469 3.441406 -23.394531 C 3.441406 -10.183594 14.3125 0.6875 27.523438 0.6875 C 40.871094 0.6875 51.535156 -10.113281 51.535156 -23.394531 L 51.535156 -24.976562 L 28.484375 -24.976562 L 28.484375 -17.203125 L 40.386719 -17.203125 C 37.84375 -10.113281 32.0625 -8.667969 27.523438 -8.667969 C 20.089844 -8.667969 13.898438 -15.34375 13.898438 -23.257812 C 13.898438 -31.167969 20.089844 -37.84375 27.523438 -37.84375 Z M 27.523438 -37.84375 "/></g></g></g><g fill="#004a87" fill-opacity="1"><g transform="translate(221.576551, 361.499976)"><g><path d="M 13.484375 -18.785156 C 13.484375 -18.785156 13.828125 -24.425781 20.296875 -24.425781 C 26.558594 -24.425781 27.039062 -18.785156 27.039062 -18.785156 Z M 36.949219 -15.824219 C 36.949219 -25.527344 29.3125 -31.03125 20.089844 -31.03125 C 9.90625 -31.03125 2.40625 -24.632812 2.40625 -15.136719 C 2.40625 -5.503906 9.632812 0.6875 20.089844 0.6875 C 28.140625 0.6875 34.609375 -3.300781 36.398438 -11.285156 L 25.871094 -11.285156 C 25.800781 -9.082031 23.53125 -6.675781 19.882812 -6.675781 C 15.824219 -6.675781 13.347656 -10.390625 13.347656 -13.898438 L 36.878906 -13.898438 C 36.878906 -14.519531 36.949219 -15.207031 36.949219 -15.824219 Z M 36.949219 -15.824219 "/></g></g></g><g fill="#004a87" fill-opacity="1"><g transform="translate(260.930606, 361.499976)"><g><path d="M 35.160156 -17.203125 C 35.160156 -25.457031 31.855469 -31.03125 23.738281 -31.03125 C 19.746094 -31.03125 16.511719 -29.242188 14.449219 -26.628906 L 14.449219 -30.34375 L 4.128906 -30.34375 L 4.128906 0 L 14.449219 0 L 14.449219 -15.136719 C 14.449219 -19.265625 16.996094 -22.707031 20.230469 -22.707031 C 23.460938 -22.707031 24.839844 -20.777344 24.839844 -17.203125 L 24.839844 0 L 35.160156 0 Z M 35.160156 -17.203125 "/></g></g></g><g fill="#004a87" fill-opacity="1"><g transform="translate(299.183853, 361.499976)"><g><path d="M 3.578125 -40.734375 C 3.578125 -37.429688 6.261719 -34.675781 9.632812 -34.675781 C 12.933594 -34.675781 15.6875 -37.429688 15.6875 -40.734375 C 15.6875 -44.105469 12.933594 -46.789062 9.632812 -46.789062 C 6.261719 -46.789062 3.578125 -44.105469 3.578125 -40.734375 Z M 14.792969 0 L 14.792969 -30.34375 L 4.472656 -30.34375 L 4.472656 0 Z M 14.792969 0 "/></g></g></g><g fill="#004a87" fill-opacity="1"><g transform="translate(318.44808, 361.499976)"><g><path d="M 13.484375 -18.785156 C 13.484375 -18.785156 13.828125 -24.425781 20.296875 -24.425781 C 26.558594 -24.425781 27.039062 -18.785156 27.039062 -18.785156 Z M 36.949219 -15.824219 C 36.949219 -25.527344 29.3125 -31.03125 20.089844 -31.03125 C 9.90625 -31.03125 2.40625 -24.632812 2.40625 -15.136719 C 2.40625 -5.503906 9.632812 0.6875 20.089844 0.6875 C 28.140625 0.6875 34.609375 -3.300781 36.398438 -11.285156 L 25.871094 -11.285156 C 25.800781 -9.082031 23.53125 -6.675781 19.882812 -6.675781 C 15.824219 -6.675781 13.347656 -10.390625 13.347656 -13.898438 L 36.878906 -13.898438 C 36.878906 -14.519531 36.949219 -15.207031 36.949219 -15.824219 Z M 36.949219 -15.824219 "/></g></g></g></svg>
